<?xml version="1.0" standalone="no"?>
<!DOCTYPE svg PUBLIC "-//W3C//DTD SVG 20010904//EN"
 "http://www.w3.org/TR/2001/REC-SVG-20010904/DTD/svg10.dtd">
<svg version="1.0" xmlns="http://www.w3.org/2000/svg"
 width="700.000000pt" height="700.000000pt" viewBox="0 0 700.000000 700.000000"
 preserveAspectRatio="xMidYMid meet">

<g transform="translate(0.000000,700.000000) scale(0.100000,-0.100000)"
fill="#000000" stroke="none">
<path d="M605 6680 c-166 -60 -288 -203 -315 -368 -14 -82 -13 -5547 1 -5632
28 -179 158 -322 337 -371 64 -18 170 -19 2857 -19 3047 0 2839 -4 2957 56
115 58 215 190 238 313 14 74 14 5598 0 5672 -25 136 -128 265 -260 328 l-75
36 -2845 2 c-2729 2 -2847 1 -2895 -17z m3526 -1372 c577 -393 989 -892 1104
-1334 42 -163 52 -290 32 -446 -29 -236 -87 -419 -202 -636 -111 -208 -261
-415 -453 -621 -103 -111 -300 -291 -318 -291 -7 0 -15 47 -22 123 -33 366
-54 584 -72 772 -11 116 -27 284 -36 375 -40 441 -74 797 -104 1115 -19 194
-49 530 -50 548 0 4 -4 7 -10 7 -5 0 -10 -18 -10 -40 0 -22 -7 -106 -15 -187
-8 -82 -22 -224 -30 -318 -9 -93 -25 -262 -35 -375 -11 -113 -36 -387 -56
-610 -20 -223 -38 -412 -41 -420 -6 -18 -10 -10 -48 115 -132 436 -446 712
-913 804 -67 13 -88 21 -90 35 -12 62 122 366 236 537 200 297 521 606 896
861 55 38 104 68 109 68 5 0 62 -37 128 -82z m-1551 -1592 c292 -52 513 -158
681 -325 199 -198 315 -470 364 -856 18 -139 21 -555 5 -555 -6 0 -99 71 -208
158 -178 144 -939 751 -970 775 -7 5 -14 8 -17 5 -2 -2 97 -150 221 -328 124
-179 271 -392 327 -473 56 -81 146 -211 200 -288 55 -77 96 -144 92 -147 -4
-4 -118 -7 -253 -7 -309 0 -437 22 -640 107 -275 115 -442 285 -559 566 -102
249 -143 478 -150 859 -3 150 -2 310 2 357 l7 84 76 21 c101 26 226 49 337 60
120 13 380 6 485 -13z"/>
</g>
</svg>
